<svg width="24" height="25" viewBox="0 0 24 25" fill="none" xmlns="http://www.w3.org/2000/svg">
<path d="M12 16.6328C14.0711 16.6328 15.75 14.9539 15.75 12.8828C15.75 10.8117 14.0711 9.13281 12 9.13281C9.92893 9.13281 8.25 10.8117 8.25 12.8828C8.25 14.9539 9.92893 16.6328 12 16.6328Z" stroke="#1C1B1B" stroke-width="2" stroke-miterlimit="10"/>
<path d="M16.125 4.25781H7.875C5.38972 4.25781 3.375 6.27253 3.375 8.75781V17.0078C3.375 19.4931 5.38972 21.5078 7.875 21.5078H16.125C18.6103 21.5078 20.625 19.4931 20.625 17.0078V8.75781C20.625 6.27253 18.6103 4.25781 16.125 4.25781Z" stroke="#1C1B1B" stroke-width="2" stroke-linecap="round" stroke-linejoin="round"/>
<path d="M16.875 9.13281C17.4963 9.13281 18 8.62913 18 8.00781C18 7.38649 17.4963 6.88281 16.875 6.88281C16.2537 6.88281 15.75 7.38649 15.75 8.00781C15.75 8.62913 16.2537 9.13281 16.875 9.13281Z" fill="#1C1B1B"/>
</svg>
