<svg width="109" height="27" viewBox="0 0 109 27" fill="none" xmlns="http://www.w3.org/2000/svg">
<path d="M35.8911 3.81787V22H31.1631V3.81787H35.8911ZM47.3125 3.81787V7.45654H44.5049V22H39.7769V7.45654H36.9805V3.81787H47.3125ZM56.5552 3.81787L59.2617 22H54.4214L54.1855 18.7319H52.4897L52.209 22H47.3125L49.7158 3.81787H56.5552ZM54.0508 15.5088C53.8112 13.4499 53.5716 10.908 53.332 7.8833C52.8529 11.3573 52.5534 13.8991 52.4336 15.5088H54.0508ZM64.7983 3.81787V18.3613H67.6733V22H60.0703V3.81787H64.7983ZM78.9038 3.81787L75.4561 15.4189V22H71.0762V15.4189L67.752 3.81787H72.0981C72.7795 7.35921 73.1613 9.74382 73.2437 10.9717C73.5057 9.03255 73.9437 6.64795 74.5576 3.81787H78.9038Z" fill="white"/>
</svg>
